<?xml version="1.0" standalone="no"?>
<!DOCTYPE svg PUBLIC "-//W3C//DTD SVG 20010904//EN"
 "http://www.w3.org/TR/2001/REC-SVG-20010904/DTD/svg10.dtd">
<svg version="1.0" xmlns="http://www.w3.org/2000/svg"
 width="310.000000pt" height="310.000000pt" viewBox="0 0 310.000000 310.000000"
 preserveAspectRatio="xMidYMid meet">
<metadata>
Created by potrace 1.11, written by Peter Selinger 2001-2013
</metadata>
<g transform="translate(0.000000,310.000000) scale(0.100000,-0.100000)"
fill="#000000" stroke="none">
<path d="M1425 3064 c-151 -22 -234 -40 -336 -74 -476 -156 -842 -538 -984
-1026 -120 -411 -45 -895 194 -1251 359 -534 997 -786 1616 -638 615 146 1065
642 1156 1274 17 121 6 400 -20 516 -142 617 -615 1073 -1222 1179 -92 17
-344 29 -404 20z m315 -105 c480 -60 896 -359 1105 -794 94 -197 137 -394 137
-625 -2 -679 -472 -1245 -1152 -1387 -131 -27 -411 -24 -550 6 -412 88 -745
332 -953 696 -60 105 -103 213 -139 355 -26 99 -31 139 -35 291 -7 206 8 320
63 490 69 214 180 394 349 564 220 220 512 366 810 404 101 12 267 13 365 0z"/>
<path d="M1928 2712 c-15 -9 -77 -77 -138 -151 -61 -73 -133 -153 -160 -178
l-50 -45 -51 46 c-27 25 -91 94 -141 153 -122 146 -159 183 -181 183 -17 0
-19 -5 -14 -36 10 -60 51 -108 59 -68 4 18 161 -166 229 -269 l46 -70 -33 -56
c-19 -31 -117 -156 -219 -277 -173 -207 -205 -254 -172 -254 8 0 90 91 182
203 93 111 197 229 232 263 l64 61 59 -56 c32 -31 136 -148 231 -261 155 -185
209 -237 209 -198 0 7 -86 114 -191 238 -104 124 -194 234 -199 245 -6 11 -21
36 -34 55 l-24 36 47 70 c25 39 86 119 135 178 72 86 91 104 98 91 5 -8 14
-13 19 -10 24 15 52 125 32 125 -5 0 -20 -8 -35 -18z"/>
<path d="M720 1315 l0 -125 35 0 34 0 3 66 3 66 48 -66 c43 -59 52 -66 83 -66
l34 0 0 125 0 125 -35 0 -34 0 -3 -67 -3 -68 -49 68 c-44 59 -54 67 -83 67
l-33 0 0 -125z"/>
<path d="M1030 1315 l0 -125 35 0 35 0 0 125 0 125 -35 0 -35 0 0 -125z"/>
<path d="M1170 1315 l0 -125 35 0 c33 0 35 2 35 34 0 18 6 39 14 45 12 10 20
3 46 -33 28 -42 35 -46 71 -46 45 0 46 -5 -13 82 -21 31 -38 60 -38 65 0 4 21
29 47 55 l47 48 -44 0 c-41 0 -49 -4 -87 -47 l-42 -48 -1 48 0 47 -35 0 -35 0
0 -125z"/>
<path d="M1460 1315 l0 -125 35 0 c32 0 35 3 35 28 0 16 8 36 18 45 16 15 19
13 46 -28 26 -42 31 -45 72 -45 l45 0 -50 73 -49 73 45 52 45 52 -40 0 c-34 0
-45 -6 -86 -50 l-46 -49 0 49 0 50 -35 0 -35 0 0 -125z"/>
<path d="M1760 1315 l0 -125 35 0 35 0 0 125 0 125 -35 0 -35 0 0 -125z"/>
<path d="M2114 1430 c-41 -16 -74 -68 -74 -116 0 -36 6 -51 33 -80 28 -31 41
-37 85 -42 61 -5 105 10 131 47 65 91 5 202 -109 200 -25 0 -54 -4 -66 -9z
m108 -67 c22 -20 23 -70 1 -95 -36 -40 -113 -8 -113 47 0 54 71 85 112 48z"/>
<path d="M1890 1300 c0 -17 7 -20 50 -20 43 0 50 3 50 20 0 17 -7 20 -50 20
-43 0 -50 -3 -50 -20z"/>
<path d="M1355 1100 c-13 -30 -23 -39 -35 -35 -69 22 -127 -2 -161 -65 -28
-52 -24 -99 11 -140 35 -41 35 -41 10 -72 -14 -19 -16 -28 -8 -36 20 -20 33
-13 46 22 12 31 17 34 60 38 26 2 62 0 80 -5 58 -15 112 8 118 50 2 11 -3 13
-19 8 -12 -4 -37 -9 -56 -12 l-34 -6 21 24 c19 19 21 31 16 73 -3 31 -13 58
-25 69 -22 21 -25 57 -5 57 15 0 39 54 29 64 -15 15 -31 3 -48 -34z m-148
-226 c-3 -3 -12 -4 -19 -1 -8 3 -5 6 6 6 11 1 17 -2 13 -5z"/>
<path d="M674 1041 c-42 -18 -74 -69 -74 -118 0 -39 5 -50 39 -84 34 -35 44
-39 87 -39 32 0 61 7 83 21 l34 20 -21 22 c-18 18 -25 19 -47 9 -37 -17 -62
-15 -85 8 -57 57 30 149 90 95 15 -13 19 -13 38 8 l22 24 -20 18 c-23 21 -112
30 -146 16z"/>
<path d="M890 925 l0 -125 35 0 c33 0 35 2 35 35 0 30 3 35 23 35 17 0 28 -10
40 -35 15 -32 21 -35 57 -35 44 0 44 0 8 52 -18 27 -18 28 2 48 29 29 27 94
-5 125 -22 23 -32 25 -110 25 l-85 0 0 -125z m128 69 c16 -5 22 -14 22 -34 0
-20 -6 -29 -22 -34 -50 -13 -58 -8 -58 34 0 42 8 47 58 34z"/>
<path d="M1529 1027 c-48 -32 -68 -91 -48 -143 28 -74 117 -105 195 -68 38 18
42 33 17 57 -16 13 -20 14 -37 1 -45 -33 -106 -4 -106 50 0 57 59 86 106 52
17 -13 21 -12 37 1 25 23 21 40 -13 58 -44 23 -111 19 -151 -8z"/>
<path d="M1760 925 l0 -125 40 0 40 0 0 50 0 50 45 0 45 0 0 -50 0 -50 35 0
35 0 0 125 0 125 -35 0 -35 0 0 -50 0 -50 -45 0 -45 0 0 50 0 50 -40 0 -40 0
0 -125z"/>
<path d="M2070 925 l0 -125 105 0 105 0 0 25 c0 24 -2 25 -70 25 -68 0 -70 1
-70 25 0 24 3 25 60 25 57 0 60 1 60 25 0 24 -3 25 -60 25 -57 0 -60 1 -60 25
0 24 2 25 70 25 68 0 70 1 70 25 l0 25 -105 0 -105 0 0 -125z"/>
<path d="M2320 1020 c0 -28 3 -30 35 -30 l35 0 0 -95 0 -95 35 0 35 0 0 94 0
95 38 3 c32 3 37 7 40 31 l3 27 -110 0 -111 0 0 -30z"/>
<path d="M1220 550 l0 -60 45 0 c25 0 45 5 45 10 0 6 -13 10 -30 10 -20 0 -30
5 -30 15 0 9 9 15 25 15 14 0 25 5 25 10 0 6 -11 10 -25 10 -16 0 -25 6 -25
15 0 10 10 15 30 15 17 0 30 5 30 10 0 6 -20 10 -45 10 l-45 0 0 -60z"/>
<path d="M1562 604 c-21 -10 -2 -24 24 -18 32 8 31 -8 -6 -49 -16 -19 -30 -37
-30 -41 0 -3 20 -6 45 -6 25 0 45 5 45 10 0 6 -12 10 -27 10 l-26 0 22 24 c30
32 25 70 -9 73 -14 1 -31 -1 -38 -3z"/>
<path d="M1660 591 c-24 -47 -4 -101 38 -101 38 0 52 17 52 60 0 20 -5 41 -12
48 -19 19 -66 15 -78 -7z m65 -21 c9 -29 -4 -62 -23 -58 -18 3 -28 39 -18 64
8 21 34 17 41 -6z"/>
<path d="M1760 600 c0 -5 5 -10 10 -10 6 0 10 -22 10 -50 0 -38 4 -50 15 -50
12 0 15 13 15 60 0 57 -1 60 -25 60 -14 0 -25 -4 -25 -10z"/>
<path d="M1830 590 c0 -11 5 -20 10 -20 6 0 10 5 10 10 0 6 9 10 20 10 19 0
19 0 0 -46 -24 -54 -24 -54 -7 -54 6 0 20 19 29 43 34 83 35 77 -16 77 -39 0
-46 -3 -46 -20z"/>
<path d="M1407 587 c-2 -7 -2 -30 2 -52 5 -31 11 -41 29 -43 12 -2 22 1 22 7
0 6 -4 11 -10 11 -14 0 -12 48 2 52 9 3 8 9 -4 21 -20 20 -34 22 -41 4z"/>
<path d="M1327 567 c-6 -17 2 -30 28 -46 20 -11 20 -12 -1 -9 -11 2 -22 -1
-22 -7 -1 -5 10 -10 26 -10 36 0 43 37 10 53 l-23 11 23 0 c12 1 22 6 22 11 0
15 -57 12 -63 -3z"/>
<path d="M1470 500 c0 -5 7 -10 15 -10 8 0 15 5 15 10 0 6 -7 10 -15 10 -8 0
-15 -4 -15 -10z"/>
</g>
</svg>
